<svg width="71" height="40" viewBox="0 0 71 40" fill="none" xmlns="http://www.w3.org/2000/svg">
<path fill-rule="evenodd" clip-rule="evenodd" d="M40.5 20C40.5 8.9543 31.5457 0 20.5 0C9.4543 0 0.5 8.9543 0.5 20C0.5 31.0457 9.4543 40 20.5 40C24.1429 40 27.5583 39.0261 30.5 37.3244V39.5H40.5V20ZM20.5 30C14.9772 30 10.5 25.5228 10.5 20C10.5 14.4772 14.9772 10 20.5 10C26.0228 10 30.5 14.4772 30.5 20C30.5 25.5228 26.0228 30 20.5 30Z" fill="white"/>
<path fill-rule="evenodd" clip-rule="evenodd" d="M42.8463 1.52241C45.2728 0.517313 47.8736 0 50.5 0V10C49.1868 10 47.8864 10.2587 46.6732 10.7612C45.4599 11.2638 44.3575 12.0003 43.4289 12.9289C42.5003 13.8575 41.7638 14.9599 41.2612 16.1732C40.7587 17.3864 40.5 18.6868 40.5 20V39.5H30.5V20C30.5 17.3736 31.0173 14.7728 32.0224 12.3463C33.0275 9.91982 34.5007 7.71504 36.3579 5.85786C38.215 4.00069 40.4198 2.5275 42.8463 1.52241Z" fill="white"/>
<path d="M70.5 20C70.5 31.0457 61.5457 40 50.5 40C39.4543 40 30.5 31.0457 30.5 20C30.5 8.9543 39.4543 0 50.5 0C61.5457 0 70.5 8.9543 70.5 20ZM40.5 20C40.5 25.5228 44.9772 30 50.5 30C56.0228 30 60.5 25.5228 60.5 20C60.5 14.4772 56.0228 10 50.5 10C44.9772 10 40.5 14.4772 40.5 20Z" fill="white"/>
</svg>
