<svg width="56" height="32" viewBox="0 0 56 32" fill="none" xmlns="http://www.w3.org/2000/svg">
<path fill-rule="evenodd" clip-rule="evenodd" d="M32 16C32 7.16344 24.8366 0 16 0C7.16344 0 0 7.16344 0 16C0 24.8366 7.16344 32 16 32C18.9143 32 21.6466 31.2208 24 29.8595V31.6H32V16ZM16 24C11.5817 24 8 20.4183 8 16C8 11.5817 11.5817 8 16 8C20.4183 8 24 11.5817 24 16C24 20.4183 20.4183 24 16 24Z" fill="#FF5500"/>
<path fill-rule="evenodd" clip-rule="evenodd" d="M33.8771 1.21793C35.8183 0.41385 37.8988 0 40 0V8C38.9494 8 37.9091 8.20692 36.9385 8.60896C35.9679 9.011 35.086 9.60028 34.3431 10.3431C33.6003 11.086 33.011 11.9679 32.609 12.9385C32.2069 13.9091 32 14.9494 32 16V31.6H24V16C24 13.8989 24.4139 11.8183 25.2179 9.87707C26.022 7.93586 27.2006 6.17203 28.6863 4.68629C30.172 3.20055 31.9359 2.022 33.8771 1.21793Z" fill="#FF5500"/>
<path d="M56 16C56 24.8366 48.8366 32 40 32C31.1634 32 24 24.8366 24 16C24 7.16344 31.1634 0 40 0C48.8366 0 56 7.16344 56 16ZM32 16C32 20.4183 35.5817 24 40 24C44.4183 24 48 20.4183 48 16C48 11.5817 44.4183 8 40 8C35.5817 8 32 11.5817 32 16Z" fill="#FF5500"/>
</svg>
