<svg width="24" height="24" viewBox="0 0 24 24" fill="none" xmlns="http://www.w3.org/2000/svg">
<path d="M9.00012 18.75H3.00012C2.04012 18.75 1.25012 17.96 1.25012 17V7C1.25012 6.04 2.04012 5.25 3.00012 5.25H8.00012C10.0701 5.25 11.7501 6.93 11.7501 9C11.7501 10.03 11.3301 10.96 10.6601 11.64C11.9001 12.25 12.7501 13.53 12.7501 15C12.7501 17.07 11.0701 18.75 9.00012 18.75ZM2.75012 12.75V17C2.75012 17.14 2.86012 17.25 3.00012 17.25H9.00012C10.2401 17.25 11.2501 16.24 11.2501 15C11.2501 13.76 10.2401 12.75 9.00012 12.75H2.75012ZM2.75012 11.25H8.00012C9.24012 11.25 10.2501 10.24 10.2501 9C10.2501 7.76 9.24012 6.75 8.00012 6.75H3.00012C2.86012 6.75 2.75012 6.86 2.75012 7V11.25Z" fill="white"/>
<path d="M19.6702 18.75H18.0002C15.3802 18.75 13.2502 16.62 13.2502 14C13.2502 11.38 15.3802 9.25 18.0002 9.25C20.6202 9.25 22.7502 11.38 22.7502 14C22.7502 14.41 22.4102 14.75 22.0002 14.75H14.8402C15.1802 16.18 16.4702 17.25 18.0002 17.25H19.6702C20.0802 17.25 20.4202 17.59 20.4202 18C20.4202 18.41 20.0802 18.75 19.6702 18.75ZM14.8402 13.25H21.1702C20.8302 11.82 19.5402 10.75 18.0102 10.75C16.4802 10.75 15.1802 11.82 14.8402 13.25Z" fill="white"/>
<path d="M19.5 8.25H16.5C16.09 8.25 15.75 7.91 15.75 7.5C15.75 7.09 16.09 6.75 16.5 6.75H19.5C19.91 6.75 20.25 7.09 20.25 7.5C20.25 7.91 19.91 8.25 19.5 8.25Z" fill="white"/>
</svg>
