<svg width="32" height="31" viewBox="0 0 32 31" fill="none" xmlns="http://www.w3.org/2000/svg">
<path d="M12 24.2197H4C2.72 24.2197 1.66667 23.1993 1.66667 21.9593V9.04264C1.66667 7.80264 2.72 6.78223 4 6.78223H10.6667C13.4267 6.78223 15.6667 8.95223 15.6667 11.626C15.6667 12.9564 15.1066 14.1577 14.2133 15.036C15.8666 15.8239 17 17.4772 17 19.376C17 22.0497 14.76 24.2197 12 24.2197ZM3.66667 16.4697V21.9593C3.66667 22.1401 3.81333 22.2822 4 22.2822H12C13.6533 22.2822 15 20.9776 15 19.376C15 17.7743 13.6533 16.4697 12 16.4697H3.66667ZM3.66667 14.5322H10.6667C12.32 14.5322 13.6667 13.2276 13.6667 11.626C13.6667 10.0243 12.32 8.71973 10.6667 8.71973H4C3.81333 8.71973 3.66667 8.86181 3.66667 9.04264V14.5322Z" fill="#FF5500"/>
<path d="M26.2266 24.2191H24C20.5067 24.2191 17.6667 21.4678 17.6667 18.0837C17.6667 14.6995 20.5067 11.9482 24 11.9482C27.4933 11.9482 30.3333 14.6995 30.3333 18.0837C30.3333 18.6132 29.88 19.0524 29.3333 19.0524H19.7867C20.24 20.8995 21.96 22.2816 24 22.2816H26.2266C26.7733 22.2816 27.2266 22.7207 27.2266 23.2503C27.2266 23.7799 26.7733 24.2191 26.2266 24.2191ZM19.7867 17.1149H28.2266C27.7733 15.2678 26.0533 13.8857 24.0133 13.8857C21.9733 13.8857 20.24 15.2678 19.7867 17.1149Z" fill="#FF5500"/>
<path d="M26 10.6553H22C21.4533 10.6553 21 10.2161 21 9.68652C21 9.15694 21.4533 8.71777 22 8.71777H26C26.5467 8.71777 27 9.15694 27 9.68652C27 10.2161 26.5467 10.6553 26 10.6553Z" fill="#FF5500"/>
</svg>
