<svg width="342" height="342" viewBox="0 0 342 342" fill="none" xmlns="http://www.w3.org/2000/svg">
<g clip-path="url(#clip0_1005_5573)">
<rect x="183" y="183" width="159" height="159" rx="16" fill="#F2F2F2"/>
<path d="M270.143 246.846C270.143 243.058 269.404 239.307 267.968 235.807C266.532 232.307 264.428 229.127 261.775 226.449C259.121 223.77 255.972 221.645 252.505 220.196C249.039 218.746 245.324 218 241.571 218C237.819 218 234.104 218.746 230.638 220.196C227.171 221.645 224.022 223.77 221.368 226.449C218.715 229.127 216.611 232.307 215.175 235.807C213.739 239.307 213 243.058 213 246.846H227.286C227.286 244.952 227.655 243.077 228.373 241.327C229.091 239.577 230.143 237.987 231.47 236.647C232.797 235.308 234.371 234.246 236.105 233.521C237.838 232.796 239.695 232.423 241.571 232.423C243.448 232.423 245.305 232.796 247.038 233.521C248.772 234.246 250.346 235.308 251.673 236.647C253 237.987 254.052 239.577 254.77 241.327C255.488 243.077 255.857 244.952 255.857 246.846H270.143Z" fill="#FF5500"/>
<path d="M313 246.846C313 243.058 312.261 239.307 310.825 235.807C309.389 232.307 307.285 229.127 304.632 226.449C301.979 223.77 298.829 221.645 295.362 220.196C291.896 218.746 288.181 218 284.429 218C280.677 218 276.961 218.746 273.495 220.196C270.028 221.645 266.879 223.77 264.226 226.449C261.572 229.127 259.468 232.307 258.032 235.807C256.596 239.307 255.857 243.058 255.857 246.846H270.143C270.143 244.952 270.512 243.077 271.23 241.327C271.948 239.577 273.001 237.987 274.327 236.647C275.654 235.308 277.229 234.246 278.962 233.521C280.695 232.796 282.553 232.423 284.429 232.423C286.305 232.423 288.162 232.796 289.896 233.521C291.629 234.246 293.204 235.308 294.53 236.647C295.857 237.987 296.909 239.577 297.627 241.327C298.345 243.077 298.714 244.952 298.714 246.846H313Z" fill="#FF5500"/>
<path d="M291.287 279.154C291.287 282.942 290.548 286.693 289.112 290.193C287.676 293.693 285.571 296.873 282.918 299.551C280.265 302.23 277.115 304.355 273.649 305.804C270.182 307.254 266.467 308 262.715 308C258.963 308 255.248 307.254 251.781 305.804C248.315 304.355 245.165 302.23 242.512 299.551C239.859 296.873 237.754 293.693 236.318 290.193C234.883 286.693 234.144 282.942 234.144 279.154H242.715C242.715 281.806 243.232 284.431 244.237 286.881C245.243 289.331 246.716 291.557 248.573 293.432C250.43 295.307 252.635 296.795 255.061 297.809C257.488 298.824 260.089 299.346 262.715 299.346C265.341 299.346 267.942 298.824 270.369 297.809C272.795 296.795 275 295.307 276.857 293.432C278.714 291.557 280.188 289.331 281.193 286.881C282.198 284.431 282.715 281.806 282.715 279.154H291.287Z" fill="#FF5500"/>
<rect y="183" width="159" height="159" rx="16" fill="#F2F2F2"/>
<path d="M87.1427 246.846C87.1427 262.777 74.3509 275.692 58.5714 275.692C42.7918 275.692 30 262.777 30 246.846C30 230.915 42.7918 218 58.5714 218C74.3509 218 87.1427 230.915 87.1427 246.846ZM44.2857 246.846C44.2857 254.812 50.6816 261.269 58.5714 261.269C66.4611 261.269 72.857 254.812 72.857 246.846C72.857 238.88 66.4611 232.423 58.5714 232.423C50.6816 232.423 44.2857 238.88 44.2857 246.846Z" fill="#FF5500"/>
<path d="M130 246.846C130 262.777 117.208 275.692 101.429 275.692C85.6493 275.692 72.8574 262.777 72.8574 246.846C72.8574 230.915 85.6493 218 101.429 218C117.208 218 130 230.915 130 246.846ZM87.1431 246.846C87.1431 254.812 93.539 261.269 101.429 261.269C109.319 261.269 115.714 254.812 115.714 246.846C115.714 238.88 109.319 232.423 101.429 232.423C93.539 232.423 87.1431 238.88 87.1431 246.846Z" fill="#FF5500"/>
<ellipse cx="79.7144" cy="293.577" rx="14.2857" ry="14.4231" fill="#FF5500"/>
<rect x="183" width="159" height="159" rx="16" fill="#F2F2F2"/>
<path d="M270.143 63.8464C270.143 79.7778 257.351 92.6928 241.571 92.6928C225.792 92.6928 213 79.7778 213 63.8464C213 47.915 225.792 35 241.571 35C257.351 35 270.143 47.915 270.143 63.8464ZM227.286 63.8464C227.286 71.8121 233.682 78.2696 241.571 78.2696C249.461 78.2696 255.857 71.8121 255.857 63.8464C255.857 55.8807 249.461 49.4232 241.571 49.4232C233.682 49.4232 227.286 55.8807 227.286 63.8464Z" fill="#FF5500"/>
<path d="M312.999 63.8464C312.999 79.7778 300.208 92.6928 284.428 92.6928C268.648 92.6928 255.856 79.7778 255.856 63.8464C255.856 47.915 268.648 35 284.428 35C300.208 35 312.999 47.915 312.999 63.8464ZM270.142 63.8464C270.142 71.8121 276.538 78.2696 284.428 78.2696C292.318 78.2696 298.714 71.8121 298.714 63.8464C298.714 55.8807 292.318 49.4232 284.428 49.4232C276.538 49.4232 270.142 55.8807 270.142 63.8464Z" fill="#FF5500"/>
<rect x="244.428" y="110.577" width="37.1429" height="14.4232" fill="#FF5500"/>
<rect width="159" height="159" rx="16" fill="#F2F2F2"/>
<path d="M87.1427 63.8461C87.1427 60.058 86.4037 56.307 84.9678 52.8072C83.532 49.3074 81.4275 46.1274 78.7744 43.4488C76.1213 40.7702 72.9716 38.6454 69.5051 37.1958C66.0387 35.7461 62.3234 35 58.5714 35C54.8193 35 51.104 35.7461 47.6376 37.1958C44.1711 38.6454 41.0215 40.7702 38.3684 43.4488C35.7153 46.1274 33.6107 49.3074 32.1749 52.8072C30.739 56.307 30 60.058 30 63.8461H44.2857C44.2857 61.9521 44.6552 60.0765 45.3731 58.3267C46.091 56.5768 47.1433 54.9868 48.4699 53.6475C49.7964 52.3082 51.3712 51.2458 53.1045 50.521C54.8377 49.7961 56.6953 49.4231 58.5714 49.4231C60.4474 49.4231 62.305 49.7961 64.0382 50.521C65.7715 51.2458 67.3463 52.3082 68.6729 53.6475C69.9994 54.9868 71.0517 56.5768 71.7696 58.3267C72.4875 60.0765 72.857 61.9521 72.857 63.8461H87.1427Z" fill="#FF5500"/>
<path d="M130 63.8461C130 60.058 129.261 56.307 127.825 52.8072C126.389 49.3074 124.285 46.1274 121.632 43.4488C118.979 40.7702 115.829 38.6454 112.363 37.1958C108.896 35.7461 105.181 35 101.429 35C97.6767 35 93.9614 35.7461 90.495 37.1958C87.0286 38.6454 83.8789 40.7702 81.2258 43.4488C78.5727 46.1274 76.4681 49.3074 75.0323 52.8072C73.5964 56.307 72.8574 60.058 72.8574 63.8461H87.1431C87.1431 61.9521 87.5126 60.0765 88.2305 58.3267C88.9485 56.5768 90.0007 54.9868 91.3273 53.6475C92.6538 52.3082 94.2287 51.2458 95.9619 50.521C97.6951 49.7961 99.5528 49.4231 101.429 49.4231C103.305 49.4231 105.162 49.7961 106.896 50.521C108.629 51.2458 110.204 52.3082 111.53 53.6475C112.857 54.9868 113.909 56.5768 114.627 58.3267C115.345 60.0765 115.714 61.9521 115.714 63.8461H130Z" fill="#FF5500"/>
<path d="M51.1424 125C51.1424 121.212 51.8815 117.461 53.3173 113.961C54.7532 110.461 56.8577 107.281 59.5108 104.603C62.1639 101.924 65.3136 99.7992 68.78 98.3495C72.2465 96.8999 75.9618 96.1538 79.7138 96.1538C83.4658 96.1538 87.1812 96.8999 90.6476 98.3495C94.114 99.7992 97.2637 101.924 99.9168 104.603C102.57 107.281 104.674 110.461 106.11 113.961C107.546 117.461 108.285 121.212 108.285 125L99.7137 125C99.7138 122.348 99.1964 119.722 98.1913 117.273C97.1863 114.823 95.7131 112.597 93.8559 110.722C91.9987 108.847 89.794 107.359 87.3675 106.345C84.9409 105.33 82.3402 104.808 79.7138 104.808C77.0874 104.808 74.4867 105.33 72.0602 106.345C69.6336 107.359 67.4289 108.847 65.5717 110.722C63.7145 112.597 62.2413 114.823 61.2363 117.273C60.2312 119.722 59.7139 122.348 59.7139 125L51.1424 125Z" fill="#FF5500"/>
</g>
<defs>
<clipPath id="clip0_1005_5573">
<rect width="342" height="342" fill="white"/>
</clipPath>
</defs>
</svg>
