<svg width="21" height="20" viewBox="0 0 21 20" fill="none" xmlns="http://www.w3.org/2000/svg">
<path d="M10.4939 20C9.11432 20 7.81994 19.7403 6.61077 19.2209C5.4016 18.7016 4.33851 17.9834 3.42149 17.0663C2.50446 16.1493 1.78627 15.0862 1.26689 13.8771C0.75563 12.6679 0.5 11.3735 0.5 9.99391C0.5 8.61432 0.75563 7.31994 1.26689 6.11077C1.78627 4.9016 2.50446 3.83851 3.42149 2.92148C4.33851 2.00446 5.4016 1.29032 6.61077 0.779063C7.81994 0.259688 9.11432 0 10.4939 0C11.8735 0 13.1679 0.259688 14.3771 0.779063C15.5862 1.29032 16.6493 2.00446 17.5663 2.92148C18.4834 3.83851 19.2016 4.9016 19.7209 6.11077C20.2403 7.31994 20.5 8.61432 20.5 9.99391C20.5 11.3735 20.2403 12.6679 19.7209 13.8771C19.2016 15.0862 18.4834 16.1493 17.5663 17.0663C16.6493 17.9834 15.5862 18.7016 14.3771 19.2209C13.1679 19.7403 11.8735 20 10.4939 20ZM10.4939 18.2958C11.6625 18.2958 12.7499 18.0767 13.7562 17.6385C14.7625 17.2002 15.643 16.5997 16.3977 15.8369C17.1525 15.0659 17.7408 14.1814 18.1628 13.1832C18.5848 12.185 18.7958 11.1219 18.7958 9.99391C18.7958 8.84966 18.5767 7.7744 18.1385 6.76811C17.7084 5.76182 17.1119 4.87726 16.3491 4.11443C15.5862 3.35159 14.7017 2.75918 13.6954 2.33719C12.6972 1.90708 11.63 1.69609 10.4939 1.7042C9.34155 1.71232 8.26222 1.93548 7.25594 2.37371C6.25776 2.80381 5.37726 3.40028 4.61443 4.16312C3.85971 4.92595 3.2673 5.80645 2.83719 6.80463C2.4152 7.79468 2.2042 8.85778 2.2042 9.99391C2.2042 11.1625 2.42331 12.2499 2.86153 13.2562C3.29976 14.2625 3.90028 15.143 4.66312 15.8977C5.43406 16.6525 6.31862 17.2408 7.3168 17.6628C8.31497 18.0848 9.37401 18.2958 10.4939 18.2958ZM13.9267 13.025L15.4483 13.8527C14.8964 14.6237 14.1945 15.2404 13.3424 15.703C12.4984 16.1656 11.5814 16.3968 10.5913 16.3968C9.47139 16.3968 8.44887 16.1087 7.52374 15.5326C6.60672 14.9564 5.87229 14.1854 5.32045 13.2197C4.77673 12.2459 4.50487 11.1706 4.50487 9.99391C4.50487 9.10124 4.66312 8.26943 4.97961 7.49848C5.2961 6.71942 5.73027 6.03774 6.28211 5.45344C6.84206 4.86103 7.49128 4.39846 8.22976 4.06573C8.96825 3.73301 9.75543 3.56665 10.5913 3.56665C11.5814 3.56665 12.4984 3.79793 13.3424 4.2605C14.1945 4.72307 14.8964 5.34388 15.4483 6.12295L13.9267 6.93853C13.5047 6.40292 12.9975 5.9931 12.4051 5.70907C11.8126 5.41692 11.2081 5.27085 10.5913 5.27085C9.77166 5.27085 9.02911 5.48996 8.36366 5.92818C7.69822 6.35829 7.17072 6.93041 6.78119 7.64455C6.39978 8.35869 6.20907 9.14181 6.20907 9.99391C6.20907 10.846 6.40383 11.6291 6.79337 12.3433C7.19101 13.0574 7.72256 13.6295 8.38801 14.0596C9.05346 14.4816 9.78789 14.6926 10.5913 14.6926C11.2567 14.6926 11.8816 14.5384 12.4659 14.2301C13.0502 13.9217 13.5371 13.52 13.9267 13.025Z" fill="white"/>
</svg>
