<svg width="32" height="31" viewBox="0 0 32 31" fill="none" xmlns="http://www.w3.org/2000/svg">
<path d="M29.3725 10.283C29.3562 9.19889 29.1488 8.12333 28.752 7.10936C28.0575 5.37788 26.6433 4.00873 24.853 3.33848C23.8179 2.96182 22.7236 2.75989 21.6159 2.73697C20.1913 2.67539 19.7397 2.6582 16.1235 2.6582C12.5074 2.6582 12.0439 2.6582 10.6297 2.73697C9.5235 2.75989 8.42917 2.96182 7.39407 3.33848C5.60376 4.00873 4.18809 5.37788 3.49506 7.10936C3.10561 8.11044 2.89533 9.16881 2.8746 10.2386C2.81092 11.6178 2.79167 12.0546 2.79167 15.552C2.79167 19.0493 2.79167 19.4961 2.8746 20.8653C2.89681 21.9365 3.10561 22.9935 3.49506 23.9974C4.18957 25.7275 5.60376 27.0966 7.39555 27.7669C8.4262 28.1564 9.52053 28.377 10.6312 28.4113C12.0572 28.4729 12.5088 28.4915 16.125 28.4915C19.7412 28.4915 20.2047 28.4915 21.6189 28.4113C22.725 28.3899 23.8194 28.1879 24.8559 27.8113C26.6463 27.1396 28.0604 25.7704 28.7549 24.0404C29.1444 23.0379 29.3532 21.9809 29.3754 20.9082C29.4391 19.5305 29.4583 19.0937 29.4583 15.5949C29.4554 12.0976 29.4554 11.6536 29.3725 10.283ZM16.1146 22.1657C12.3326 22.1657 9.26879 19.2025 9.26879 15.5448C9.26879 11.8871 12.3326 8.92391 16.1146 8.92391C19.8937 8.92391 22.9605 11.8871 22.9605 15.5448C22.9605 19.2025 19.8937 22.1657 16.1146 22.1657ZM23.233 10.2229C22.3489 10.2229 21.6366 9.53258 21.6366 8.67901C21.6366 7.82544 22.3489 7.13514 23.233 7.13514C24.114 7.13514 24.8278 7.82544 24.8278 8.67901C24.8278 9.53258 24.114 10.2229 23.233 10.2229Z" fill="#FF5500"/>
<path d="M16.115 19.8457C18.5709 19.8457 20.5619 17.9202 20.5619 15.5449C20.5619 13.1697 18.5709 11.2441 16.115 11.2441C13.659 11.2441 11.6681 13.1697 11.6681 15.5449C11.6681 17.9202 13.659 19.8457 16.115 19.8457Z" fill="#FF5500"/>
</svg>
