<svg width="24" height="24" viewBox="0 0 24 24" fill="none" xmlns="http://www.w3.org/2000/svg">
<path d="M22.0293 7.96169C22.0171 7.12235 21.8616 6.28966 21.564 5.50465C21.0431 4.16415 19.9825 3.10416 18.6397 2.58526C17.8634 2.29365 17.0427 2.13732 16.2119 2.11958C15.1435 2.0719 14.8048 2.05859 12.0926 2.05859C9.38051 2.05859 9.03289 2.05859 7.97225 2.11958C7.14262 2.13732 6.32187 2.29365 5.54555 2.58526C4.20281 3.10416 3.14106 4.16415 2.62129 5.50465C2.3292 6.27968 2.17149 7.09906 2.15594 7.92732C2.10819 8.99506 2.09375 9.33324 2.09375 12.0409C2.09375 14.7485 2.09375 15.0944 2.15594 16.1544C2.1726 16.9838 2.3292 17.802 2.62129 18.5793C3.14217 19.9187 4.20281 20.9787 5.54666 21.4976C6.31965 21.7991 7.1404 21.9699 7.97336 21.9965C9.04288 22.0442 9.38162 22.0586 12.0938 22.0586C14.8059 22.0586 15.1535 22.0586 16.2141 21.9965C17.0438 21.9799 17.8645 21.8235 18.642 21.5319C19.9847 21.0119 21.0453 19.9519 21.5662 18.6125C21.8583 17.8364 22.0149 17.0181 22.0316 16.1877C22.0793 15.121 22.0938 14.7828 22.0938 12.0741C22.0915 9.3665 22.0915 9.02278 22.0293 7.96169ZM12.086 17.1612C9.24946 17.1612 6.95159 14.8671 6.95159 12.0353C6.95159 9.20351 9.24946 6.90946 12.086 6.90946C14.9203 6.90946 17.2204 9.20351 17.2204 12.0353C17.2204 14.8671 14.9203 17.1612 12.086 17.1612ZM17.4247 7.91512C16.7617 7.91512 16.2275 7.38069 16.2275 6.71986C16.2275 6.05904 16.7617 5.52461 17.4247 5.52461C18.0855 5.52461 18.6208 6.05904 18.6208 6.71986C18.6208 7.38069 18.0855 7.91512 17.4247 7.91512Z" fill="white"/>
<path d="M12.0862 15.3653C13.9282 15.3653 15.4214 13.8746 15.4214 12.0357C15.4214 10.1968 13.9282 8.70605 12.0862 8.70605C10.2443 8.70605 8.75104 10.1968 8.75104 12.0357C8.75104 13.8746 10.2443 15.3653 12.0862 15.3653Z" fill="white"/>
</svg>
