<svg width="24" height="24" viewBox="0 0 24 24" fill="none" xmlns="http://www.w3.org/2000/svg">
<path d="M21.9801 11.4104C21.6401 5.61044 16.3701 1.14045 10.3001 2.14045C6.1201 2.83045 2.77011 6.22043 2.12011 10.4004C1.74011 12.8204 2.24013 15.1104 3.33013 17.0004L2.44012 20.3104C2.24012 21.0604 2.9301 21.7404 3.6701 21.5304L6.93011 20.6304C8.41011 21.5004 10.1401 22.0004 11.9901 22.0004C17.6301 22.0004 22.3101 17.0304 21.9801 11.4104ZM16.8801 15.7204C16.7901 15.9004 16.6801 16.0704 16.5401 16.2304C16.2901 16.5004 16.0201 16.7004 15.7201 16.8204C15.4201 16.9504 15.0901 17.0104 14.7401 17.0104C14.2301 17.0104 13.6801 16.8905 13.1101 16.6405C12.5301 16.3905 11.9601 16.0604 11.3901 15.6504C10.8101 15.2304 10.2701 14.7604 9.75011 14.2504C9.23011 13.7304 8.77009 13.1804 8.35009 12.6104C7.94009 12.0404 7.61011 11.4704 7.37011 10.9004C7.13011 10.3304 7.01012 9.78045 7.01012 9.26045C7.01012 8.92044 7.07012 8.59044 7.19012 8.29044C7.31012 7.98044 7.50013 7.70045 7.77013 7.45045C8.09013 7.13045 8.44011 6.98045 8.81011 6.98045C8.95011 6.98045 9.09009 7.01044 9.22009 7.07044C9.35009 7.13044 9.47011 7.22044 9.56011 7.35044L10.7201 8.99043C10.8101 9.12043 10.8801 9.23043 10.9201 9.34043C10.9701 9.45043 10.9901 9.55043 10.9901 9.65043C10.9901 9.77043 10.9501 9.89045 10.8801 10.0104C10.8101 10.1304 10.7201 10.2504 10.6001 10.3704L10.2201 10.7704C10.1601 10.8304 10.1401 10.8904 10.1401 10.9704C10.1401 11.0104 10.1501 11.0504 10.1601 11.0904C10.1801 11.1304 10.1901 11.1604 10.2001 11.1904C10.2901 11.3604 10.4501 11.5704 10.6701 11.8304C10.9001 12.0904 11.1401 12.3604 11.4001 12.6204C11.6701 12.8904 11.9301 13.1304 12.2001 13.3604C12.4601 13.5804 12.6801 13.7304 12.8501 13.8204C12.8801 13.8304 12.9101 13.8504 12.9401 13.8604C12.9801 13.8804 13.0201 13.8804 13.0701 13.8804C13.1601 13.8804 13.2201 13.8504 13.2801 13.7904L13.6601 13.4104C13.7901 13.2804 13.9101 13.1904 14.0201 13.1304C14.1401 13.0604 14.2501 13.0204 14.3801 13.0204C14.4801 13.0204 14.5801 13.0404 14.6901 13.0904C14.8001 13.1404 14.9201 13.2004 15.0401 13.2904L16.7001 14.4704C16.8301 14.5604 16.9201 14.6704 16.9801 14.7904C17.0301 14.9204 17.0601 15.0404 17.0601 15.1804C17.0001 15.3504 16.9601 15.5404 16.8801 15.7204Z" fill="white"/>
</svg>
