<svg width="31" height="31" viewBox="0 0 31 31" fill="none" xmlns="http://www.w3.org/2000/svg">
<path d="M28.3908 14.7382C27.9516 7.24649 21.1446 1.47276 13.3041 2.76442C7.90497 3.65567 3.5779 8.0344 2.73832 13.4336C2.24748 16.5594 2.89335 19.5173 4.30126 21.9586L3.15166 26.234C2.89333 27.2027 3.78455 28.0811 4.74038 27.8098L8.95123 26.6473C10.8629 27.7711 13.0975 28.4169 15.4871 28.4169C22.7721 28.4169 28.817 21.9973 28.3908 14.7382ZM21.8033 20.3052C21.6871 20.5377 21.545 20.7573 21.3641 20.964C21.0412 21.3128 20.6925 21.5711 20.305 21.7261C19.9175 21.894 19.4912 21.9715 19.0391 21.9715C18.3804 21.9715 17.67 21.8165 16.9337 21.4936C16.1846 21.1707 15.4483 20.7444 14.7121 20.2148C13.9629 19.6723 13.2654 19.0652 12.5937 18.4065C11.9221 17.7348 11.3279 17.0244 10.7854 16.2881C10.2558 15.5519 9.82957 14.8156 9.51957 14.0794C9.20957 13.3431 9.05459 12.6327 9.05459 11.9611C9.05459 11.5219 9.13208 11.0957 9.28708 10.7082C9.44208 10.3077 9.68752 9.94609 10.0363 9.62317C10.4496 9.20984 10.9017 9.01608 11.3796 9.01608C11.5604 9.01608 11.7412 9.05483 11.9091 9.13233C12.077 9.20983 12.2321 9.32608 12.3483 9.494L13.8466 11.6123C13.9629 11.7802 14.0533 11.9223 14.105 12.0644C14.1696 12.2065 14.1954 12.3356 14.1954 12.4648C14.1954 12.6198 14.1437 12.7748 14.0533 12.9298C13.9629 13.0848 13.8466 13.2398 13.6916 13.3948L13.2008 13.9115C13.1233 13.989 13.0975 14.0665 13.0975 14.1698C13.0975 14.2215 13.1104 14.2732 13.1233 14.3248C13.1491 14.3765 13.1621 14.4152 13.175 14.454C13.2913 14.6736 13.4979 14.9448 13.7821 15.2806C14.0791 15.6165 14.3892 15.9652 14.725 16.3011C15.0738 16.6498 15.4096 16.9598 15.7583 17.2569C16.0942 17.5411 16.3783 17.7348 16.5979 17.8511C16.6366 17.864 16.6754 17.8898 16.7142 17.9027C16.7658 17.9286 16.8175 17.9286 16.8821 17.9286C16.9983 17.9286 17.0759 17.8898 17.1534 17.8123L17.6441 17.3215C17.812 17.1536 17.9671 17.0373 18.1092 16.9598C18.2642 16.8694 18.4062 16.8177 18.5742 16.8177C18.7033 16.8177 18.8325 16.8436 18.9746 16.9082C19.1167 16.9727 19.2716 17.0502 19.4266 17.1665L21.5708 18.6907C21.7388 18.8069 21.855 18.949 21.9325 19.104C21.997 19.2719 22.0358 19.4269 22.0358 19.6077C21.9583 19.8273 21.9067 20.0727 21.8033 20.3052Z" fill="#FF5500"/>
</svg>
